<?xml version="1.0" encoding="UTF-8" standalone="no"?>
<svg
   xmlns:dc="http://purl.org/dc/elements/1.1/"
   xmlns:cc="http://creativecommons.org/ns#"
   xmlns:rdf="http://www.w3.org/1999/02/22-rdf-syntax-ns#"
   xmlns:svg="http://www.w3.org/2000/svg"
   xmlns="http://www.w3.org/2000/svg"
   xmlns:sodipodi="http://sodipodi.sourceforge.net/DTD/sodipodi-0.dtd"
   xmlns:inkscape="http://www.inkscape.org/namespaces/inkscape"
   viewBox="0 0 152.21333 62.880001"
   height="62.880001"
   width="152.21333"
   xml:space="preserve"
   id="svg2"
   version="1.1"
   sodipodi:docname="logo2.svg"
   inkscape:version="1.0.2-2 (e86c870879, 2021-01-15)"><sodipodi:namedview
     pagecolor="#ffffff"
     bordercolor="#666666"
     borderopacity="1"
     objecttolerance="10"
     gridtolerance="10"
     guidetolerance="10"
     inkscape:pageopacity="0"
     inkscape:pageshadow="2"
     inkscape:window-width="1920"
     inkscape:window-height="1017"
     id="namedview147"
     showgrid="false"
     inkscape:zoom="8"
     inkscape:cx="110.72828"
     inkscape:cy="27.512981"
     inkscape:window-x="-8"
     inkscape:window-y="-8"
     inkscape:window-maximized="1"
     inkscape:current-layer="g10" /><metadata
     id="metadata8"><rdf:RDF><cc:Work
         rdf:about=""><dc:format>image/svg+xml</dc:format><dc:type
           rdf:resource="http://purl.org/dc/dcmitype/StillImage" /><dc:title></dc:title></cc:Work></rdf:RDF></metadata><defs
     id="defs6" /><g
     transform="matrix(1.3333333,0,0,-1.3333333,0,62.88)"
     id="g10"><g
       transform="scale(0.1)"
       id="g12"><path
         id="path14"
         style="fill:#ffffff;fill-opacity:1;fill-rule:nonzero;stroke:none"
         d="m 973.816,245.141 c -0.347,-31.274 -12.156,-55.637 -35.418,-73.11 -23.261,-17.468 -55.847,-26.347 -97.761,-26.629 -27.532,-0.097 -52.278,3.836 -74.25,11.805 -21.961,7.969 -40.879,20.566 -56.739,37.813 -2.421,2.89 -4.277,6.015 -5.546,9.394 -1.27,3.379 -1.914,6.848 -1.922,10.391 0.164,8.918 3.015,16.035 8.562,21.324 5.547,5.293 12.805,8.008 21.746,8.133 2.641,0.086 5.61,-0.516 8.899,-1.809 3.293,-1.297 6.926,-3.765 10.871,-7.422 13.457,-12.734 27.305,-22.218 41.543,-28.468 14.234,-6.25 29.851,-9.364 46.836,-9.344 21.797,0.34 38.906,4.824 51.355,13.465 12.442,8.632 18.778,19.394 19.016,32.261 0.301,9.684 -3.379,17.91 -11.047,24.676 -7.664,6.77 -21.145,12.027 -40.41,15.774 -8.953,1.531 -19.414,3.199 -31.399,5.003 -11.968,1.801 -23.203,3.801 -33.699,5.989 -29.922,6.972 -51.808,17.98 -65.637,33.035 -13.836,15.051 -20.652,33.203 -20.488,54.465 0.449,26.789 12.297,48.25 35.539,64.375 23.25,16.121 55.203,24.394 95.891,24.812 20.847,-0.062 40.293,-2.679 58.328,-7.847 18.027,-5.168 33.613,-12.508 46.75,-22.012 5.633,-4.027 9.629,-8.379 11.973,-13.067 2.332,-4.687 3.472,-9.257 3.394,-13.722 -0.215,-7.434 -2.848,-13.571 -7.906,-18.414 -5.051,-4.844 -11.203,-7.36 -18.449,-7.532 -4.012,-0.007 -7.735,0.778 -11.145,2.364 -3.406,1.582 -7.461,4.019 -12.137,7.312 -8.418,5.918 -18.398,11.008 -29.961,15.278 -11.55,4.265 -24.289,6.507 -38.203,6.703 -26.289,-0.504 -44.961,-4.664 -56.023,-12.477 -11.059,-7.812 -16.438,-16.258 -16.106,-25.336 -0.117,-7.976 2.852,-14.883 8.907,-20.719 6.047,-5.832 15.832,-10.214 29.355,-13.136 5.84,-1.227 13.953,-2.727 24.336,-4.492 l 30.488,-5.079 21.7,-3.621 c 29.277,-5.043 51.379,-15.066 66.296,-30.062 14.934,-14.996 22.422,-35.02 22.461,-60.074 v 0" /><path
         id="path16"
         style="fill:#ffffff;fill-opacity:1;fill-rule:nonzero;stroke:none"
         d="m 640.449,435.992 c 2.754,-2.316 5.559,-4.867 8.211,-7.679 1.848,-1.946 3.567,-4.012 5.363,-6.2 4.375,-5.336 7.082,-10.804 8.106,-16.418 0.898,-7.996 -0.801,-14.746 -5.086,-20.25 -4.289,-5.507 -9.902,-8.808 -16.867,-9.918 -9.27,-0.984 -16.613,1.125 -22.031,6.34 -2.454,2.352 -5.157,4.758 -8.106,7.43 -3.594,3.238 -7.559,6.812 -11.894,10.519 -6.59,5.227 -12.793,8.653 -19.559,11.418 -11.469,4.688 -25.688,7.071 -42.648,7.145 -29.317,-0.703 -53.004,-11.274 -71.055,-31.715 -18.051,-20.434 -27.34,-46.504 -27.867,-78.207 0.164,-20.887 4.437,-39.687 12.851,-56.391 8.41,-16.703 20.02,-29.964 34.828,-39.781 14.813,-9.824 31.891,-14.844 51.243,-15.066 12.933,0.254 24.265,2.156 33.996,5.73 10.496,4.914 19.312,9.981 26.543,15.918 8.043,6.633 14.453,12.324 19.214,17.086 3.235,2.953 6.731,5.125 10.493,6.52 3.757,1.394 7.82,1.84 12.175,1.332 7.598,-1.086 13.653,-4.41 18.157,-9.981 4.5,-5.57 6.355,-12.379 5.574,-20.394 -0.344,-3.098 -1.133,-6.25 -2.371,-9.465 -1.25,-3.203 -3.125,-6.219 -5.656,-9.043 -16.7,-18.692 -36.844,-32.274 -60.43,-40.77 -9.863,-3.547 -20.074,-6.074 -30.621,-7.578 -8.688,-0.871 -17.731,-1.554 -27.074,-1.613 -29.942,0.344 -57,7.766 -81.172,22.266 -24.168,14.492 -43.411,34.023 -57.715,58.593 -14.301,24.555 -21.625,52.106 -21.969,82.637 0.34,30.527 7.621,58.039 21.871,82.531 14.254,24.492 33.453,43.953 57.617,58.379 24.16,14.434 51.289,21.817 81.368,22.149 15.539,0.437 33.378,-2.086 53.527,-7.575 13.863,-3.781 27.156,-10.207 39.883,-19.281 0,0 6.422,-4.758 11.101,-8.668 v 0" /><path
         id="path18"
         style="fill:#ffffff;fill-opacity:1;fill-rule:nonzero;stroke:none"
         d="m 256.059,386.066 c 18.027,-20.41 27.316,-46.437 27.855,-78.082 -0.539,-31.64 -9.828,-57.648 -27.855,-78.062 -14.348,-16.231 -28.832,-25.41 -51.618,-31.602 -12.738,-2.742 -21,-13.679 -21,-25.996 0,-14.687 11.914,-26.601 26.61,-26.601 1.515,0 3.008,0.097 4.457,0.343 19.855,3.555 34.918,11.043 51.863,21.161 24.16,14.433 43.363,33.886 57.613,58.39 14.231,24.453 21.512,51.895 21.871,82.367 -0.359,30.477 -7.64,57.946 -21.871,82.399 -14.25,24.492 -33.453,43.953 -57.613,58.383 -16.945,10.117 -32.008,17.605 -51.863,21.16 -1.449,0.25 -2.942,0.344 -4.457,0.344 -14.696,0 -26.61,-11.911 -26.61,-26.602 0,-12.316 8.254,-23.281 21,-26.035 22.782,-6.172 37.27,-15.328 51.618,-31.567 v 0" /><path
         id="path20"
         style="fill:#ffffff;fill-opacity:1;fill-rule:nonzero;stroke:none"
         d="m 89.8008,386.066 c -18.0313,-20.41 -27.3203,-46.437 -27.8633,-78.082 0.543,-31.64 9.832,-57.648 27.8633,-78.062 14.3442,-16.231 28.8322,-25.41 51.6052,-31.602 12.742,-2.742 21.004,-13.679 21.004,-25.996 0,-14.687 -11.914,-26.601 -26.605,-26.601 -1.52,0 -3.008,0.097 -4.457,0.343 -19.86,3.555 -34.9183,11.043 -51.8597,21.161 C 55.3242,181.66 36.1172,201.113 21.8711,225.617 7.64063,250.07 0.355469,277.512 0,307.984 c 0.355469,30.477 7.64063,57.946 21.8711,82.399 14.2461,24.492 33.4531,43.953 57.6172,58.383 16.9414,10.117 31.9997,17.605 51.8597,21.16 1.449,0.25 2.937,0.344 4.457,0.344 14.691,0 26.605,-11.911 26.605,-26.602 0,-12.316 -8.25,-23.281 -21.004,-26.035 -22.769,-6.172 -37.261,-15.328 -51.6052,-31.567 v 0" /><path
         id="path22"
         style="fill:#ffffff;fill-opacity:1;fill-rule:evenodd;stroke:none"
         d="m 212.914,67.8438 v -48.293 h 5.047 c 7.574,0 13.367,1.9844 17.371,5.9375 4.004,3.9648 6.008,10.0312 6.008,18.2148 0,8.1719 -2.004,14.2383 -6.008,18.2032 -4.004,3.9531 -9.926,5.9375 -17.766,5.9375 h -4.652 z M 191.469,1.73828 V 85.793 h 28.941 c 5.945,0 11.52,-0.7539 16.731,-2.2578 5.214,-1.5118 9.754,-3.9141 13.629,-7.2344 3.878,-3.3125 6.933,-7.6367 9.171,-12.9805 2.243,-5.332 3.36,-11.7851 3.36,-19.3633 0,-7.6562 -1.145,-14.1601 -3.422,-19.4922 -2.281,-5.3437 -5.383,-9.6875 -9.305,-13.0468 -3.918,-3.35941 -8.547,-5.81253 -13.886,-7.3555 -5.34,-1.55078 -11.024,-2.32422 -17.055,-2.32422 h -28.164 v 0" /><path
         id="path24"
         style="fill:#ffffff;fill-opacity:1;fill-rule:nonzero;stroke:none"
         d="m 287.246,85.8516 h 21.445 V 1.79688 h -21.445 v 84.05472 0" /><path
         id="path26"
         style="fill:#ffffff;fill-opacity:1;fill-rule:nonzero;stroke:none"
         d="m 367.23,87.2852 c 5.95,0 11.633,-0.9454 17.055,-2.8399 5.434,-1.8867 10.168,-4.6015 14.215,-8.1367 L 387.004,61.0742 c -3.707,3.0196 -7.348,5.1289 -10.918,6.3281 -3.574,1.2032 -6.91,1.8086 -10.016,1.8086 -3.359,0 -5.75,-0.6836 -7.168,-2.0625 -1.422,-1.3867 -2.129,-2.9296 -2.129,-4.6484 0,-1.2109 0.34,-2.1953 1.032,-2.9687 0.687,-0.7813 1.66,-1.4844 2.91,-2.1368 1.242,-0.6445 2.687,-1.2226 4.324,-1.7382 1.637,-0.5196 3.402,-1.0352 5.293,-1.5547 3.188,-0.8594 6.57,-1.875 10.148,-3.0352 3.567,-1.1523 6.864,-2.7461 9.879,-4.7773 3.016,-2.0196 5.536,-4.5782 7.563,-7.6758 2.019,-3.1055 3.035,-7.0586 3.035,-11.8828 0,-4.5625 -0.883,-8.4961 -2.652,-11.8164 -1.762,-3.3125 -4.18,-6.08597 -7.235,-8.33207 C 388.012,4.34766 384.395,2.69531 380.219,1.62109 376.039,0.539063 371.582,0 366.852,0 360.215,0 353.816,1.125 347.66,3.35938 341.504,5.59766 336.355,8.70313 332.223,12.6563 L 344.238,27.5 c 3.7,-3.1836 7.602,-5.5078 11.692,-6.9727 4.09,-1.4531 7.82,-2.1875 11.175,-2.1875 3.965,0 6.915,0.6836 8.852,2.0625 1.934,1.375 2.906,3.1836 2.906,5.4297 0,1.0235 -0.234,1.9532 -0.711,2.7735 -0.476,0.8086 -1.25,1.5703 -2.328,2.2539 -1.074,0.6953 -2.562,1.3594 -4.457,2.0039 -1.894,0.6445 -4.262,1.3555 -7.105,2.1289 -4.567,1.2109 -8.633,2.5195 -12.207,3.9453 -3.575,1.4141 -6.633,3.1133 -9.172,5.0977 -2.539,1.9804 -4.481,4.3632 -5.817,7.1679 -1.336,2.793 -2.003,6.1719 -2.003,10.1367 0,4.2969 0.882,8.0665 2.652,11.2891 1.765,3.2305 4.133,5.9453 7.105,8.1328 2.973,2.1992 6.395,3.8399 10.274,4.9141 3.871,1.0742 7.918,1.6094 12.136,1.6094 v 0" /><path
         id="path28"
         style="fill:#ffffff;fill-opacity:1;fill-rule:nonzero;stroke:none"
         d="M 462.797,1.85547 H 441.48 V 68.0859 h -24.031 v 17.8243 h 69.375 V 68.0859 h -24.027 v -66.23043 0" /><path
         id="path30"
         style="fill:#ffffff;fill-opacity:1;fill-rule:evenodd;stroke:none"
         d="M 527.691,68.1445 V 49.1719 h 14.473 c 3.441,0 6.152,0.789 8.133,2.3828 1.984,1.5898 2.973,4.0312 2.973,7.293 0,3.1953 -1.051,5.539 -3.165,7.0429 -2.113,1.5039 -4.714,2.2539 -7.816,2.2539 h -14.598 z m 47.543,-9.4218 c 0,-6.2813 -1.379,-11.4454 -4.136,-15.4883 -2.754,-4.0547 -6.496,-7.0235 -11.235,-8.918 L 574.977,1.91406 h -22.09 L 540.352,31.4766 H 527.691 V 1.91406 H 506.504 V 85.9688 h 38.887 c 4.304,0 8.293,-0.5586 11.949,-1.6797 3.66,-1.125 6.805,-2.793 9.433,-5.0391 2.625,-2.2383 4.692,-5.0508 6.2,-8.457 1.504,-3.3985 2.261,-7.4219 2.261,-12.0703 v 0" /><path
         id="path32"
         style="fill:#ffffff;fill-opacity:1;fill-rule:nonzero;stroke:none"
         d="m 600.145,86.0273 h 21.457 V 1.97266 h -21.457 v 84.05464 0" /><path
         id="path34"
         style="fill:#ffffff;fill-opacity:1;fill-rule:evenodd;stroke:none"
         d="M 670.391,37.9219 V 19.8438 h 14.992 c 3.433,0 6.133,0.7343 8.062,2.1992 1.946,1.4648 2.91,3.8281 2.91,7.0976 0,3.1953 -1.121,5.4492 -3.359,6.7774 -2.234,1.3398 -4.82,2.0039 -7.754,2.0039 h -14.851 z m 0,30.3398 V 54.8359 h 14.336 c 2.761,0 4.914,0.5664 6.464,1.6797 1.551,1.1211 2.325,2.8008 2.325,5.0391 0,4.4726 -2.754,6.707 -8.274,6.707 h -14.851 z m 33.203,-20.6523 c 1.894,-0.6055 3.742,-1.5039 5.554,-2.7149 1.809,-1.2031 3.403,-2.6679 4.778,-4.3867 1.379,-1.7187 2.48,-3.6406 3.301,-5.75 0.808,-2.1094 1.218,-4.3672 1.218,-6.7773 0,-8.1758 -2.605,-14.5508 -7.808,-19.11331 -5.215,-4.5586 -12.688,-6.83594 -22.414,-6.83594 H 649.07 V 86.0859 h 39.535 c 8.18,0 14.665,-1.789 19.442,-5.3632 4.785,-3.5625 7.18,-8.836 7.18,-15.8086 0,-4.0547 -1.172,-7.5782 -3.497,-10.5977 -2.328,-3.0078 -5.042,-5.1172 -8.136,-6.3281 v -0.3789 0" /><path
         id="path36"
         style="fill:#ffffff;fill-opacity:1;fill-rule:nonzero;stroke:none"
         d="m 778.23,0.917969 c -5.425,0 -10.359,0.773441 -14.792,2.316411 -4.434,1.55078 -8.204,3.875 -11.309,6.97262 -3.098,3.1055 -5.508,6.9532 -7.227,11.5625 -1.726,4.5977 -2.589,10 -2.589,16.1993 v 48.2929 h 21.32 V 39.0938 c 0,-6.2696 1.269,-11.086 3.808,-14.4336 2.547,-3.3516 6.219,-5.0313 11.043,-5.0313 4.914,0 8.594,1.6211 11.047,4.8359 2.461,3.2227 3.684,7.9297 3.684,14.1211 v 47.6758 h 21.441 V 37.9688 c 0,-6.1993 -0.879,-11.6211 -2.644,-16.2696 -1.758,-4.6484 -4.239,-8.5156 -7.422,-11.6211 C 801.395,6.98438 797.566,4.67969 793.086,3.17578 788.613,1.66016 783.652,0.917969 778.23,0.917969 v 0" /><path
         id="path38"
         style="fill:#ffffff;fill-opacity:1;fill-rule:nonzero;stroke:none"
         d="M 879.922,2.08984 H 858.605 V 68.3203 h -24.027 v 17.8242 h 69.375 V 68.3203 h -24.031 v -66.23046 0" /><path
         id="path40"
         style="fill:#ffffff;fill-opacity:1;fill-rule:nonzero;stroke:none"
         d="m 925.051,86.2031 h 21.441 V 2.14844 h -21.441 v 84.05466 0" /><path
         id="path42"
         style="fill:#ffffff;fill-opacity:1;fill-rule:evenodd;stroke:none"
         d="m 1008.84,68.4961 c -2.84,0 -5.28,-0.6445 -7.31,-1.9336 -2.018,-1.2969 -3.698,-3.0352 -5.026,-5.2344 -1.336,-2.1953 -2.332,-4.7734 -2.981,-7.7422 -0.64,-2.9687 -0.964,-6.1836 -0.964,-9.6211 0,-3.6132 0.339,-6.9531 1.035,-10.0078 0.683,-3.0586 1.719,-5.7031 3.105,-7.9414 1.367,-2.2343 3.098,-3.9843 5.161,-5.2226 2.07,-1.25 4.48,-1.875 7.23,-1.875 2.77,0 5.18,0.664 7.24,2 2.07,1.3281 3.77,3.1367 5.11,5.4218 1.33,2.2852 2.32,4.9297 2.96,7.9375 0.65,3.0196 0.97,6.2032 0.97,9.5625 0,3.5235 -0.32,6.7969 -0.97,9.8047 -0.64,3.0157 -1.66,5.6133 -3.03,7.8125 -1.38,2.1953 -3.1,3.9141 -5.17,5.1641 -2.07,1.25 -4.52,1.875 -7.36,1.875 z m 0,-68.300787 c -6.38,0 -11.953,1.046877 -16.731,3.156247 -4.785,2.10938 -8.769,5.08594 -11.953,8.91404 -3.183,3.8282 -5.578,8.3907 -7.168,13.6836 -1.601,5.293 -2.39,11.1328 -2.39,17.5 0,6.4531 0.789,12.3711 2.39,17.7539 1.59,5.3789 4.004,10 7.239,13.875 3.218,3.8789 7.253,6.8672 12.078,8.9766 4.812,2.1094 10.415,3.1641 16.785,3.1641 6.2,0 11.69,-1.0352 16.48,-3.0977 4.77,-2.0703 8.79,-5.0195 12.01,-8.8477 3.23,-3.8281 5.69,-8.4375 7.36,-13.8164 1.68,-5.3828 2.52,-11.3398 2.52,-17.8828 0,-6.6289 -0.84,-12.6054 -2.52,-17.9492 -1.67,-5.332 -4.15,-9.8711 -7.42,-13.6211 -3.27,-3.74218 -7.31,-6.65234 -12.08,-8.71093 -4.78,-2.07031 -10.31,-3.097657 -16.6,-3.097657 v 0" /><path
         id="path44"
         style="fill:#ffffff;fill-opacity:1;fill-rule:nonzero;stroke:none"
         d="m 1102.24,32.2852 -13.05,19.8828 h -0.39 V 2.20703 h -20.93 V 86.2617 h 19.64 l 18.35,-26.6015 c 0.6,-0.8594 1.57,-2.2969 2.9,-4.3282 1.34,-2.0195 2.76,-4.1679 4.27,-6.4531 1.5,-2.2773 2.93,-4.4531 4.26,-6.5156 1.33,-2.0703 2.3,-3.5352 2.91,-4.3945 h 0.39 v 48.2929 h 21.05 V 2.20703 h -18.6 l -20.8,30.07817 v 0" /></g></g></svg>
